<mxfile host="app.diagrams.net" agent="Mozilla/5.0 (Windows NT 10.0; Win64; x64) AppleWebKit/537.36 (KHTML, like Gecko) Chrome/132.0.0.0 Safari/537.36 Edg/132.0.0.0" version="26.0.6">
  <diagram name="Page-1" id="4_Ki15NAY70jIPUnIFaQ">
    <mxGraphModel dx="1068" dy="471" grid="1" gridSize="10" guides="1" tooltips="1" connect="1" arrows="1" fold="1" page="1" pageScale="1" pageWidth="850" pageHeight="1100" math="0" shadow="0">
      <root>
        <mxCell id="0" />
        <mxCell id="1" parent="0" />
        <mxCell id="fkO-R1UYVtDxdyt-nd3Y-1" style="edgeStyle=orthogonalEdgeStyle;rounded=0;orthogonalLoop=1;jettySize=auto;html=1;entryX=0;entryY=0.5;entryDx=0;entryDy=0;" edge="1" parent="1" source="fkO-R1UYVtDxdyt-nd3Y-2" target="fkO-R1UYVtDxdyt-nd3Y-3">
          <mxGeometry relative="1" as="geometry" />
        </mxCell>
        <mxCell id="fkO-R1UYVtDxdyt-nd3Y-2" value="" style="ellipse;html=1;shape=startState;fillColor=#000000;strokeColor=#ff0000;" vertex="1" parent="1">
          <mxGeometry x="40" y="45" width="30" height="30" as="geometry" />
        </mxCell>
        <mxCell id="fkO-R1UYVtDxdyt-nd3Y-3" value="Quản lý ca làm việc" style="rounded=1;whiteSpace=wrap;html=1;arcSize=40;fontColor=#000000;fillColor=#ffffc0;strokeColor=#ff0000;" vertex="1" parent="1">
          <mxGeometry x="120" y="40" width="120" height="40" as="geometry" />
        </mxCell>
      </root>
    </mxGraphModel>
  </diagram>
</mxfile>
